<svg xmlns="http://www.w3.org/2000/svg" width="100" height="100"><circle cx="50" cy="50" r="50" fill="#4a2f6e"/><defs><mask id="a"><path fill="#fff" d="M0 0h100v100H0z"/><g stroke="#000" stroke-linecap="round" stroke-linejoin="round" stroke-width="13"><path stroke-width="9.1" d="M37.4 32.5 23.4 50l14 17.5M62.6 32.5l14 17.5-14 17.5"/></g></mask></defs><g stroke="#fff" stroke-linecap="round" stroke-linejoin="round" mask="url(#a)"><circle cx="50" cy="50" r="40" fill="none" stroke-width="3.5"/><path stroke-width="1.5" d="M10 50h80"/><path fill="none" stroke-width="1.5" d="M11.91 37Q50 30 88.09 37"/><path fill="none" d="M21.44 22Q50 16 78.56 22"/><path fill="none" stroke-width="1.5" d="M11.91 63Q50 70 88.09 63"/><path fill="none" d="M21.44 78Q50 84 78.56 78"/><path stroke-width="1.5" d="M50 10v80"/><path fill="none" stroke-width="1.5" d="M50 10a20 40 0 0 0 0 80M50 10a20 40 0 0 1 0 80"/><path fill="none" d="M50 10a35 40 0 0 0 0 80M50 10a35 40 0 0 1 0 80"/></g><g fill="none" stroke="#fff" stroke-linecap="round" stroke-linejoin="round" stroke-width="9"><path stroke-width="6.3" d="M37.4 32.5 23.4 50l14 17.5M62.6 32.5l14 17.5-14 17.5"/></g></svg>